<svg id="svg4351" xmlns:rdf="http://www.w3.org/1999/02/22-rdf-syntax-ns#"
  xmlns="http://www.w3.org/2000/svg" height="102" viewBox="0 0 102 102" width="102" version="1.1"
  xmlns:cc="http://creativecommons.org/ns#" xmlns:dc="http://purl.org/dc/elements/1.1/">
  <metadata id="metadata4356">
    <rdf:RDF>
      <cc:Work rdf:about="">
        <dc:format>image/svg</dc:format>
        <dc:type rdf:resource="http://purl.org/dc/dcmitype/StillImage" />
        <dc:title />
      </cc:Work>
    </rdf:RDF>
  </metadata>
  <g id="layer1" fill="#5e5e5e" transform="translate(-11.143 -774.93)">
    <path id="path4292" fill="#5e5e5e"
      d="m62.142 775.93a50.001 50.001 0 0 0 -49.998 49.998 50.001 50.001 0 0 0 49.998 50.002 50.001 50.001 0 0 0 50.002 -50.002 50.001 50.001 0 0 0 -50.002 -49.998zm20.553 17.821c1.3775-0.0958 2.8368 0.63876 3.736 1.8632 0.83498 1.1371 1.1395 2.5326 1.3736 4.3019 0.23408 1.7693 0.30034 3.8825 0.19078 6.1874-0.2192 4.6098-1.1421 9.9752-3.0556 14.648-3.322 8.1132-7.2436 14.934-12.057 19.831-1.9492 1.9831-3.9835 3.45-5.9934 5.1191 0.2064 2.2168 0.46896 4.4149 1.1192 5.8345 0.80154 1.7499 1.6659 2.5206 3.0047 2.6168s3.6225-0.68342 6.7947-3.3258a1.6281 1.6281 0 1 1 2.0826 2.4991c-3.4987 2.9144-6.4278 4.2657-9.1094 4.073-2.6816-0.1928-4.6444-2.1325-5.7327-4.5086-0.61326-1.3388-1.0089-2.8835-1.2941-4.5118-4.0027 2.9772-7.9787 5.4782-11.698 7.1031-3.2825 1.4343-6.451 2.3802-9.3542 2.5913-2.9032 0.21118-5.6341-0.34022-7.6691-2.0889-3.2222-2.7689-3.5954-7.5916-2.957-12.299 0.63842-4.7069 2.3831-9.4934 4.5054-12.747 3.0055-4.6073 6.5941-7.7484 10.572-9.0108s8.2722-0.48852 12.101 2.3179a1.6281 1.6281 0 1 1 -1.9236 2.6263c-3.1611-2.3168-6.1754-2.7983-9.1921-1.841-3.0167 0.95736-6.108 3.5111-8.8328 7.6881-1.7514 2.6848-3.4342 7.2114-4.003 11.405s0.0713 7.8603 1.8505 9.3892c1.2006 1.0317 2.9545 1.4847 5.313 1.3131s5.2321-0.99626 8.2859-2.3306c3.9056-1.7066 8.2191-4.5991 12.553-8.0029-0.1418-3.0815 0.0936-6.3072 0.50555-9.2716 0.16702-2.6727 1.1018-6.7862 2.5023-11.574 1.4047-4.8017 3.2804-10.195 5.348-15.052 2.0676-4.8574 4.2818-9.1567 6.5912-11.914 1.1547-1.3785 2.3248-2.4507 3.8568-2.8393 0.1915-0.0486 0.38826-0.0784 0.58504-0.0922zm0.43878 3.1954c-0.06008 0.01-0.13122 0.031-0.22257 0.054-0.36563 0.0928-1.2246 0.65494-2.1621 1.7742-1.875 2.2385-4.0868 6.3859-6.092 11.097-2.0052 4.7107-3.8481 10.008-5.2176 14.69-1.3696 4.6817-2.2585 8.8239-2.3847 10.893a1.6281 1.6281 0 0 1 -0.013 0.1272c-0.26679 1.9022-0.24935 3.9478-0.27979 5.9616 1.2673-1.1265 2.559-1.9842 3.7964-3.2431 4.3692-4.4452 8.1443-10.911 11.367-18.782 1.718-4.1957 2.6132-9.2818 2.8171-13.57 0.1019-2.1443 0.03468-4.0909-0.16534-5.6024-0.19998-1.5115-0.62897-2.613-0.76946-2.8044-0.39533-0.53834-0.49401-0.62384-0.67406-0.59458zm6.5594 52.151a2.775 2.7493 0 0 1 2.7758 2.7471 2.775 2.7493 0 0 1 -2.7758 2.7503 2.775 2.7493 0 0 1 -2.7726 -2.7503 2.775 2.7493 0 0 1 2.7726 -2.7471z" />
  </g>
</svg>