<?xml version="1.0" encoding="UTF-8" standalone="no"?>
<!-- Created with Inkscape (http://www.inkscape.org/) -->

<svg
   xmlns:dc="http://purl.org/dc/elements/1.1/"
   xmlns:cc="http://creativecommons.org/ns#"
   xmlns:rdf="http://www.w3.org/1999/02/22-rdf-syntax-ns#"
   xmlns:svg="http://www.w3.org/2000/svg"
   xmlns="http://www.w3.org/2000/svg"
   xmlns:sodipodi="http://sodipodi.sourceforge.net/DTD/sodipodi-0.dtd"
   xmlns:inkscape="http://www.inkscape.org/namespaces/inkscape"
   width="206.81245mm"
   height="206.81247mm"
   viewBox="0 0 732.80003 732.80009"
   id="svg4351"
   version="1.1"
   inkscape:version="0.91 r13725"
   sodipodi:docname="cristina-leon-ilustradora-icono-optimizado.svg"
   inkscape:export-filename="/home/sebastian/Dropbox/webDevelopment/clientes/cristinaleon/cristinaleonilustradora2/recursos/cristina-leon-ilustradora-icono.png"
   inkscape:export-xdpi="90"
   inkscape:export-ydpi="90">
  <defs
     id="defs4353" />
  <sodipodi:namedview
     id="base"
     pagecolor="#ffffff"
     bordercolor="#666666"
     borderopacity="1.0"
     inkscape:pageopacity="0.0"
     inkscape:pageshadow="2"
     inkscape:zoom="0.98994949"
     inkscape:cx="199.92424"
     inkscape:cy="365.83571"
     inkscape:document-units="px"
     inkscape:current-layer="layer1"
     showgrid="false"
     fit-margin-top="1"
     fit-margin-left="1"
     fit-margin-right="1"
     fit-margin-bottom="1"
     inkscape:window-width="1920"
     inkscape:window-height="1026"
     inkscape:window-x="0"
     inkscape:window-y="30"
     inkscape:window-maximized="1" />
  <metadata
     id="metadata4356">
    <rdf:RDF>
      <cc:Work
         rdf:about="">
        <dc:format>image/svg+xml</dc:format>
        <dc:type
           rdf:resource="http://purl.org/dc/dcmitype/StillImage" />
        <dc:title></dc:title>
      </cc:Work>
    </rdf:RDF>
  </metadata>
  <g
     inkscape:label="Capa 1"
     inkscape:groupmode="layer"
     id="layer1"
     transform="translate(-8.5999639,-146.67644)">
    <path
       style="display:inline;fill:#000000;fill-opacity:1;stroke:none;stroke-width:2;stroke-linecap:round;stroke-linejoin:round;stroke-miterlimit:4;stroke-dasharray:none;stroke-opacity:1"
       d="M 374.98847,150.21975 A 362.86169,362.86169 0 0 0 12.143271,513.06495 362.86169,362.86169 0 0 0 374.98847,875.93321 362.86169,362.86169 0 0 0 737.85671,513.06495 362.86169,362.86169 0 0 0 374.98847,150.21975 Z m 149.15302,129.33206 c 9.99664,-0.69468 20.58739,4.6356 27.11244,13.52157 6.05957,8.25203 8.26928,18.3798 9.96814,31.21972 1.69875,12.83991 2.17958,28.17568 1.3845,44.9028 -1.59077,33.45399 -8.28865,72.39115 -22.1746,106.30387 -24.10845,58.87854 -52.56791,108.37679 -87.49819,143.91514 -14.14538,14.3917 -28.90899,25.03715 -43.49526,37.14978 1.49789,16.08786 3.40328,32.03986 8.12218,42.34164 5.8169,12.69908 12.08961,18.292 21.80541,18.99021 9.71556,0.69822 26.28921,-4.95979 49.30993,-24.13584 a 11.815283,11.815283 0 1 1 15.11378,18.13652 c -25.39087,21.15032 -46.64715,30.95698 -66.10817,29.5583 -19.46101,-1.39867 -33.70468,-15.47589 -41.60323,-32.71951 -4.45049,-9.7158 -7.32179,-20.92631 -9.39127,-32.74266 -29.04781,21.60574 -57.90268,39.75586 -84.89081,51.54822 -23.82173,10.40871 -46.81586,17.27329 -67.88489,18.8057 -21.06916,1.53252 -40.8873,-2.46903 -55.65554,-15.15985 -23.38365,-20.09427 -26.09226,-55.09318 -21.45913,-89.25188 4.63313,-34.15858 17.29455,-68.895 32.69635,-92.50536 21.81109,-33.43579 47.85432,-56.23147 76.72244,-65.39282 28.86822,-9.16137 60.03277,-3.5453 87.82131,16.82114 a 11.815283,11.815283 0 1 1 -13.96003,19.05959 c -22.9405,-16.81348 -44.81548,-20.30785 -66.7082,-13.3601 -21.89283,6.94775 -44.32639,25.48052 -64.10071,55.79386 -12.71008,19.48417 -24.92268,52.33434 -29.05064,82.76795 -4.12785,30.43358 0.51745,57.04356 13.42932,68.13877 8.71301,7.48743 21.44107,10.77469 38.55733,9.52972 17.11627,-1.24497 37.97018,-7.23011 60.13189,-16.91353 28.34368,-12.38474 59.64726,-33.37662 91.09782,-58.07836 -1.02901,-22.36257 0.67932,-45.77209 3.66888,-67.28498 1.21213,-19.39604 7.99613,-49.24873 18.15956,-83.99081 10.19392,-34.8464 23.80625,-73.98358 38.81111,-109.23437 15.00473,-35.25091 31.07344,-66.45124 47.83327,-86.45984 8.37987,-10.0043 16.8715,-17.78519 27.98927,-20.60545 1.38968,-0.35206 2.81767,-0.56944 4.24574,-0.66868 z m 3.18427,23.18977 c -0.43595,0.0709 -0.95223,0.22447 -1.61523,0.39222 -2.65344,0.67341 -8.88703,4.75306 -15.69067,12.87549 -13.60712,16.24485 -29.65882,46.34342 -44.21048,80.52977 -14.55167,34.18633 -27.92583,72.62801 -37.86515,106.6037 -9.93921,33.97559 -16.39029,64.03597 -17.30588,79.05301 a 11.815283,11.815283 0 0 1 -0.0945,0.92268 c -1.9361,13.80431 -1.80956,28.65002 -2.0305,43.26441 9.19669,-8.17535 18.57118,-14.39973 27.55084,-23.53581 31.70765,-32.25971 59.10454,-79.18496 82.49102,-136.30059 12.46766,-30.44896 18.964,-67.3594 20.44395,-98.48165 0.73956,-15.56106 0.25164,-29.68848 -1.19983,-40.65716 -1.45124,-10.96881 -4.5645,-18.96305 -5.58406,-20.35156 -2.86894,-3.90692 -3.5851,-4.52729 -4.89175,-4.31499 z m 47.60244,378.46663 a 20.138701,19.95223 0 0 1 20.14399,19.9363 20.138701,19.95223 0 0 1 -20.14399,19.95932 20.138701,19.95223 0 0 1 -20.12084,-19.95932 20.138701,19.95223 0 0 1 20.12084,-19.9363 z"
       id="path4292"
       inkscape:connector-curvature="0" />
  </g>
</svg>
